<?xml version="1.0" standalone="no"?>
<!DOCTYPE svg PUBLIC "-//W3C//DTD SVG 20010904//EN"
 "http://www.w3.org/TR/2001/REC-SVG-20010904/DTD/svg10.dtd">
<svg version="1.0" xmlns="http://www.w3.org/2000/svg"
 width="1390.000000pt" height="1390.000000pt" viewBox="0 0 1390.000000 1390.000000"
 preserveAspectRatio="xMidYMid meet">
<metadata>
Created by potrace 1.14, written by Peter Selinger 2001-2017
</metadata>
<g transform="translate(0.000000,1390.000000) scale(0.100000,-0.100000)"
fill="#000000" stroke="none">
<path d="M2163 13140 c-88 -21 -166 -101 -192 -195 -7 -26 -11 -182 -11 -432
l0 -393 -397 0 c-379 0 -400 -1 -443 -21 -60 -27 -107 -74 -136 -134 -22 -45
-24 -63 -24 -197 l0 -147 -377 -3 c-361 -3 -380 -4 -423 -24 -54 -26 -104 -74
-133 -128 l-22 -41 -3 -4635 c-2 -4003 0 -4641 12 -4677 25 -73 69 -125 131
-157 70 -35 96 -36 440 -16 297 17 1185 18 1515 1 1631 -81 2916 -334 3975
-781 255 -107 609 -287 680 -346 56 -45 113 -64 196 -64 79 0 136 19 194 66
22 18 92 60 155 94 847 458 1977 778 3300 934 757 90 1619 129 2367 107 225
-6 464 -16 532 -21 142 -11 187 -6 251 25 58 29 89 61 120 122 l25 48 3 4625
c2 5090 7 4683 -59 4763 -40 48 -91 80 -151 95 -31 8 -164 12 -397 12 l-351 0
0 138 c0 196 -29 265 -138 330 l-47 27 -407 3 -408 3 0 391 c0 275 -4 403 -12
432 -22 76 -65 133 -126 168 -56 33 -59 33 -177 32 -134 -2 -380 -35 -656 -90
-1544 -303 -2845 -1049 -3661 -2099 -119 -152 -348 -486 -348 -506 0 -21 -18
-6 -40 34 -51 92 -190 291 -319 457 -520 672 -1230 1220 -2092 1613 -621 284
-1363 493 -2048 577 -171 21 -243 23 -298 10z m2654 -10996 c-3 -3 -12 -4 -19
-1 -8 3 -5 6 6 6 11 1 17 -2 13 -5z"/>
</g>
</svg>
